<svg xmlns="http://www.w3.org/2000/svg" viewBox="0 0 160 90">
  <defs/>
  <path fill="#fafafa" d="M0 0h160v90H0z"/>
  <path fill="none" d="M68 33h24v24H68z"/>
  <path fill="#009688" d="M69.624976 49.612723c-3.826169 0-6.914762 3.088593-6.914762 6.914762 0 3.019446-2.673708 4.609842-4.609842 4.609842 2.120527 2.812003 5.739253 4.609841 9.219683 4.609841 5.093875 0 9.219683-4.125808 9.219683-9.219683 0-3.826169-3.088594-6.914762-6.914762-6.914762zm31.600464-21.597107l-3.088595-3.088594c-.898919-.898919-2.351019-.898919-3.249938 0l-20.65209 20.652089 6.338532 6.338532 20.652091-20.652089c.89892-.898919.89892-2.351019 0-3.249938z"/>
</svg>
