<?xml version="1.0" encoding="UTF-8" standalone="no"?>
<svg
   xmlns:dc="http://purl.org/dc/elements/1.1/"
   xmlns:cc="http://creativecommons.org/ns#"
   xmlns:rdf="http://www.w3.org/1999/02/22-rdf-syntax-ns#"
   xmlns:svg="http://www.w3.org/2000/svg"
   xmlns="http://www.w3.org/2000/svg"
   xmlns:sodipodi="http://sodipodi.sourceforge.net/DTD/sodipodi-0.dtd"
   xmlns:inkscape="http://www.inkscape.org/namespaces/inkscape"
   height="90"
   viewBox="0 0 160 90"
   width="160"
   version="1.1"
   id="svg6"
   sodipodi:docname="brush.svg"
   inkscape:version="1.0 (4035a4fb49, 2020-05-01)">
  <metadata
     id="metadata12">
    <rdf:RDF>
      <cc:Work
         rdf:about="">
        <dc:format>image/svg+xml</dc:format>
        <dc:type
           rdf:resource="http://purl.org/dc/dcmitype/StillImage" />
        <dc:title></dc:title>
      </cc:Work>
    </rdf:RDF>
  </metadata>
  <defs
     id="defs10" />
  <sodipodi:namedview
     fit-margin-bottom="0"
     fit-margin-right="0"
     fit-margin-left="0"
     fit-margin-top="0"
     inkscape:document-rotation="0"
     pagecolor="#ffffff"
     bordercolor="#666666"
     borderopacity="1"
     objecttolerance="10"
     gridtolerance="10"
     guidetolerance="10"
     inkscape:pageopacity="0"
     inkscape:pageshadow="2"
     inkscape:window-width="1854"
     inkscape:window-height="1057"
     id="namedview8"
     showgrid="false"
     inkscape:zoom="3.2777346"
     inkscape:cx="84.391895"
     inkscape:cy="48.654707"
     inkscape:window-x="-8"
     inkscape:window-y="-8"
     inkscape:window-maximized="1"
     inkscape:current-layer="svg6" />
  <rect
     style="fill:#fafafa;fill-opacity:1;stroke-width:1.41011"
     id="rect837"
     width="160"
     height="90"
     x="0"
     y="0" />
  <path
     d="M 68,33 H 92 V 57 H 68 Z"
     fill="none"
     id="path2" />
  <path
     d="m 69.624976,49.612723 c -3.826169,0 -6.914762,3.088593 -6.914762,6.914762 0,3.019446 -2.673708,4.609842 -4.609842,4.609842 2.120527,2.812003 5.739253,4.609841 9.219683,4.609841 5.093875,0 9.219683,-4.125808 9.219683,-9.219683 0,-3.826169 -3.088594,-6.914762 -6.914762,-6.914762 z M 101.22544,28.015616 98.136845,24.927022 c -0.898919,-0.898919 -2.351019,-0.898919 -3.249938,0 l -20.65209,20.652089 6.338532,6.338532 20.652091,-20.652089 c 0.89892,-0.898919 0.89892,-2.351019 0,-3.249938 z"
     id="path4"
     style="fill:#009688;fill-opacity:1;stroke-width:2.30492" />
</svg>
