<?xml version="1.0" encoding="UTF-8" standalone="no"?>
<svg
   xmlns:dc="http://purl.org/dc/elements/1.1/"
   xmlns:cc="http://creativecommons.org/ns#"
   xmlns:rdf="http://www.w3.org/1999/02/22-rdf-syntax-ns#"
   xmlns:svg="http://www.w3.org/2000/svg"
   xmlns="http://www.w3.org/2000/svg"
   xmlns:sodipodi="http://sodipodi.sourceforge.net/DTD/sodipodi-0.dtd"
   xmlns:inkscape="http://www.inkscape.org/namespaces/inkscape"
   inkscape:version="1.0 (4035a4fb49, 2020-05-01)"
   sodipodi:docname="emoji_objects.svg"
   id="svg12"
   version="1.1"
   width="36"
   viewBox="0 0 36 36"
   height="36"
   enable-background="new 0 0 24 24">
  <metadata
     id="metadata18">
    <rdf:RDF>
      <cc:Work
         rdf:about="">
        <dc:format>image/svg+xml</dc:format>
        <dc:type
           rdf:resource="http://purl.org/dc/dcmitype/StillImage" />
        <dc:title></dc:title>
      </cc:Work>
    </rdf:RDF>
  </metadata>
  <defs
     id="defs16" />
  <sodipodi:namedview
     inkscape:current-layer="svg12"
     inkscape:window-maximized="1"
     inkscape:window-y="-8"
     inkscape:window-x="-8"
     inkscape:cy="21.173647"
     inkscape:cx="12.19325"
     inkscape:zoom="18.073031"
     lock-margins="false"
     fit-margin-bottom="6"
     fit-margin-right="6"
     fit-margin-left="6"
     fit-margin-top="6"
     showgrid="false"
     id="namedview14"
     inkscape:window-height="1057"
     inkscape:window-width="1856"
     inkscape:pageshadow="2"
     inkscape:pageopacity="0"
     guidetolerance="10"
     gridtolerance="10"
     objecttolerance="10"
     borderopacity="1"
     bordercolor="#666666"
     pagecolor="#ffffff" />
  <g
     transform="translate(6,6)"
     id="g4">
    <rect
       y="0"
       x="0"
       id="rect2"
       width="24"
       height="24"
       fill="none" />
  </g>
  <g
     transform="translate(6,6)"
     id="g10">
    <g
       id="g6" />
    <path
       id="path8"
       d="M 12,3 C 11.54,3 11.07,3.04 10.6,3.14 7.84,3.67 5.64,5.9 5.12,8.66 4.64,11.27 5.6,13.67 7.34,15.22 7.77,15.6 8,16.13 8,16.69 V 19 c 0,1.1 0.9,2 2,2 h 0.28 c 0.35,0.6 0.98,1 1.72,1 0.74,0 1.38,-0.4 1.72,-1 H 14 c 1.1,0 2,-0.9 2,-2 V 16.69 C 16,16.14 16.22,15.6 16.64,15.23 18.09,13.95 19,12.08 19,10 19,6.13 15.87,3 12,3 Z m 2,16 h -4 v -1 h 4 z m 0,-2 h -4 v -1 h 4 z M 12.5,11.41 V 14 h -1 V 11.41 L 9.67,9.59 10.38,8.88 12,10.5 13.62,8.88 14.33,9.59 Z" />
  </g>
</svg>
