<?xml version="1.0" encoding="UTF-8" standalone="no"?>
<svg
   xmlns:dc="http://purl.org/dc/elements/1.1/"
   xmlns:cc="http://creativecommons.org/ns#"
   xmlns:rdf="http://www.w3.org/1999/02/22-rdf-syntax-ns#"
   xmlns:svg="http://www.w3.org/2000/svg"
   xmlns="http://www.w3.org/2000/svg"
   xmlns:sodipodi="http://sodipodi.sourceforge.net/DTD/sodipodi-0.dtd"
   xmlns:inkscape="http://www.inkscape.org/namespaces/inkscape"
   inkscape:version="1.0 (4035a4fb49, 2020-05-01)"
   sodipodi:docname="handyman.svg"
   id="svg18"
   version="1.1"
   width="36"
   viewBox="0 0 36 36"
   height="36"
   enable-background="new 0 0 24 24">
  <metadata
     id="metadata24">
    <rdf:RDF>
      <cc:Work
         rdf:about="">
        <dc:format>image/svg+xml</dc:format>
        <dc:type
           rdf:resource="http://purl.org/dc/dcmitype/StillImage" />
        <dc:title></dc:title>
      </cc:Work>
    </rdf:RDF>
  </metadata>
  <defs
     id="defs22" />
  <sodipodi:namedview
     inkscape:current-layer="svg18"
     inkscape:window-maximized="0"
     inkscape:window-y="0"
     inkscape:window-x="0"
     inkscape:cy="18"
     inkscape:cx="18"
     inkscape:zoom="10.432234"
     fit-margin-right="6"
     fit-margin-left="6"
     fit-margin-bottom="6"
     fit-margin-top="6"
     showgrid="false"
     id="namedview20"
     inkscape:window-height="480"
     inkscape:window-width="840"
     inkscape:pageshadow="2"
     inkscape:pageopacity="0"
     guidetolerance="10"
     gridtolerance="10"
     objecttolerance="10"
     borderopacity="1"
     bordercolor="#666666"
     pagecolor="#ffffff" />
  <g
     transform="translate(6,6)"
     id="g4">
    <rect
       y="0"
       x="0"
       id="rect2"
       width="24"
       height="24"
       fill="none" />
  </g>
  <g
     transform="translate(6,6)"
     id="g16">
    <g
       id="g14">
      <g
         id="g8">
        <path
           id="path6"
           d="m 21.67,18.17 -5.3,-5.3 h -0.99 l -2.54,2.54 v 0.99 l 5.3,5.3 c 0.39,0.39 1.02,0.39 1.41,0 l 2.12,-2.12 c 0.39,-0.38 0.39,-1.02 0,-1.41 z" />
      </g>
      <g
         id="g12">
        <path
           id="path10"
           d="m 17.34,10.19 1.41,-1.41 2.12,2.12 c 1.17,-1.17 1.17,-3.07 0,-4.24 L 17.33,3.12 15.92,4.53 V 1.71 L 15.22,1 11.68,4.54 12.39,5.25 h 2.83 L 13.81,6.66 14.87,7.72 11.98,10.61 7.85,6.48 V 5.06 L 4.83,2.04 2,4.87 5.03,7.9 h 1.41 l 4.13,4.13 -0.85,0.85 H 7.6 l -5.3,5.3 c -0.39,0.39 -0.39,1.02 0,1.41 l 2.12,2.12 c 0.39,0.39 1.02,0.39 1.41,0 l 5.3,-5.3 v -2.12 l 5.15,-5.15 z" />
      </g>
    </g>
  </g>
</svg>
