<?xml version="1.0" encoding="UTF-8" standalone="no"?>
<svg
   xmlns:dc="http://purl.org/dc/elements/1.1/"
   xmlns:cc="http://creativecommons.org/ns#"
   xmlns:rdf="http://www.w3.org/1999/02/22-rdf-syntax-ns#"
   xmlns:svg="http://www.w3.org/2000/svg"
   xmlns="http://www.w3.org/2000/svg"
   xmlns:sodipodi="http://sodipodi.sourceforge.net/DTD/sodipodi-0.dtd"
   xmlns:inkscape="http://www.inkscape.org/namespaces/inkscape"
   inkscape:version="1.0 (4035a4fb49, 2020-05-01)"
   sodipodi:docname="pest_control_rodent.svg"
   id="svg10"
   version="1.1"
   width="36"
   viewBox="0 0 36 36"
   height="36"
   enable-background="new 0 0 24 24">
  <metadata
     id="metadata16">
    <rdf:RDF>
      <cc:Work
         rdf:about="">
        <dc:format>image/svg+xml</dc:format>
        <dc:type
           rdf:resource="http://purl.org/dc/dcmitype/StillImage" />
        <dc:title></dc:title>
      </cc:Work>
    </rdf:RDF>
  </metadata>
  <defs
     id="defs14" />
  <sodipodi:namedview
     inkscape:current-layer="svg10"
     inkscape:window-maximized="0"
     inkscape:window-y="0"
     inkscape:window-x="0"
     inkscape:cy="18"
     inkscape:cx="18"
     inkscape:zoom="10.432234"
     fit-margin-right="6"
     fit-margin-bottom="6"
     fit-margin-left="6"
     fit-margin-top="6"
     showgrid="false"
     id="namedview12"
     inkscape:window-height="480"
     inkscape:window-width="840"
     inkscape:pageshadow="2"
     inkscape:pageopacity="0"
     guidetolerance="10"
     gridtolerance="10"
     objecttolerance="10"
     borderopacity="1"
     bordercolor="#666666"
     pagecolor="#ffffff" />
  <g
     transform="translate(6,6)"
     id="g4">
    <rect
       y="0"
       x="0"
       id="rect2"
       width="24"
       height="24"
       fill="none" />
  </g>
  <g
     transform="translate(6,6)"
     id="g8">
    <path
       id="path6"
       d="M 21.31,17.38 18.92,15.25 C 19.44,12.89 17.56,11 15.5,11 14.34,11 12,11.9 12,14.5 c 0,0.97 0.39,1.84 1.03,2.47 l -0.71,0.71 C 11.5,16.87 11,15.74 11,14.5 11,12.8 11.96,11.33 13.35,10.57 12.65,10.21 11.87,10 11.07,10 8.69,10 6.7,11.65 6.16,13.87 4.91,13.5 4,12.36 4,11 4,9.34 5.34,8 7,8 7.94,8 8.56,8 9.5,8 10.88,8 12,6.88 12,5.5 12,4.12 10.88,3 9.5,3 H 8 C 7.45,3 7,3.45 7,4 7,4.55 7.45,5 8,5 H 9.5 C 9.78,5 10,5.22 10,5.5 10,5.78 9.78,6 9.5,6 9.47,6 9,6 7,6 4.24,6 2,8.24 2,11 c 0,2.42 1.72,4.44 4,4.9 v 0.03 C 6,18.73 8.27,21 11.07,21 h 8.86 c 1.87,0 2.81,-2.34 1.38,-3.62 z M 18,19 c -0.55,0 -1,-0.45 -1,-1 0,-0.55 0.45,-1 1,-1 0.55,0 1,0.45 1,1 0,0.55 -0.45,1 -1,1 z" />
  </g>
</svg>
