<?xml version="1.0" encoding="UTF-8" standalone="no"?>
<svg
   xmlns:dc="http://purl.org/dc/elements/1.1/"
   xmlns:cc="http://creativecommons.org/ns#"
   xmlns:rdf="http://www.w3.org/1999/02/22-rdf-syntax-ns#"
   xmlns:svg="http://www.w3.org/2000/svg"
   xmlns="http://www.w3.org/2000/svg"
   xmlns:sodipodi="http://sodipodi.sourceforge.net/DTD/sodipodi-0.dtd"
   xmlns:inkscape="http://www.inkscape.org/namespaces/inkscape"
   width="6900"
   height="3881.25"
   viewBox="0 0 706.56 397.45658"
   preserveAspectRatio="xMinYMin meet"
   version="1.1"
   id="svg10"
   sodipodi:docname="react.svg"
   inkscape:version="1.0 (4035a4fb49, 2020-05-01)"
   inkscape:export-filename="C:\Users\endo.tamotsu\Downloads\react.png"
   inkscape:export-xdpi="130.72301"
   inkscape:export-ydpi="130.72301">
  <metadata
     id="metadata16">
    <rdf:RDF>
      <cc:Work
         rdf:about="">
        <dc:format>image/svg+xml</dc:format>
        <dc:type
           rdf:resource="http://purl.org/dc/dcmitype/StillImage" />
        <dc:title></dc:title>
      </cc:Work>
    </rdf:RDF>
  </metadata>
  <defs
     id="defs14" />
  <sodipodi:namedview
     inkscape:document-rotation="0"
     pagecolor="#ffffff"
     bordercolor="#666666"
     borderopacity="1"
     objecttolerance="10"
     gridtolerance="10"
     guidetolerance="10"
     inkscape:pageopacity="0"
     inkscape:pageshadow="2"
     inkscape:window-width="1854"
     inkscape:window-height="1057"
     id="namedview12"
     showgrid="false"
     inkscape:zoom="0.070049537"
     inkscape:cx="1041.5455"
     inkscape:cy="1684.3338"
     inkscape:window-x="-8"
     inkscape:window-y="-8"
     inkscape:window-maximized="1"
     inkscape:current-layer="svg10"
     fit-margin-top="0"
     fit-margin-left="0"
     fit-margin-right="0"
     fit-margin-bottom="0" />
  <rect
     y="0"
     x="-2.8421709e-14"
     height="397.45657"
     width="706.58948"
     id="rect831"
     style="fill:#000;stroke-width:0.138847" />
  <path
     id="path4"
     style="fill:#53c1de;fill-opacity:1;stroke-width:1"
     d="m 399.42997,98.210582 c -11.30724,-0.0802 -25.80159,7.083578 -40.40409,19.790828 a 151.13599,151.13599 0 0 0 -5.62603,5.16301 137.573,137.573 0 0 0 -3.74396,-3.45794 c -20.40499,-18.118 -40.85801,-25.751978 -53.13901,-18.64298 -11.776,6.817 -15.26403,27.05999 -10.30703,52.38999 a 150.91,150.91 0 0 0 1.67007,7.48391 c -2.894,0.822 -5.68915,1.69811 -8.36315,2.63011 -23.922,8.34 -39.20004,21.41186 -39.20004,34.96986 0,14.00399 16.40013,28.05012 41.31813,36.56612 a 128.43999,128.43999 0 0 0 6.11005,1.90988 147.813,147.813 0 0 0 -1.77507,8.06714 c -4.726,24.89 -1.03496,44.65295 10.71005,51.42794 12.13099,6.995 32.49098,-0.19513 52.31698,-17.52513 1.567,-1.37 3.13999,-2.82298 4.715,-4.34598 a 148.33999,148.33999 0 0 0 6.10785,5.57303 c 19.20399,16.525 38.17008,23.19809 49.90508,16.40508 12.12,-7.01599 16.05805,-28.24705 10.94406,-54.07805 -0.39001,-1.97299 -0.84506,-3.98804 -1.35506,-6.04005 1.43,-0.422 2.83298,-0.85785 4.20198,-1.31185 25.90399,-8.582 42.75698,-22.45714 42.75698,-36.64813 0,-13.607 -15.76988,-26.76687 -40.17388,-35.16787 a 151.364,151.364 0 0 0 -7.2741,-2.2921 137.5,137.5 0 0 0 1.12404,-4.961 c 5.506,-26.728 1.90597,-48.25991 -10.38803,-55.34791 -2.94674,-1.699501 -6.36174,-2.531173 -10.13082,-2.557908 z m -0.49302,9.631198 c 2.28882,-0.0335 4.24884,0.39244 5.80284,1.28866 7.566,4.364 10.50904,21.96108 5.75504,45.03808 a 127.52499,127.52499 0 0 1 -1.01605,4.49198 c -9.37399,-2.163 -19.55405,-3.773 -30.21205,-4.773 -6.209,-8.841 -12.642,-16.87999 -19.1,-23.83799 a 141.92,141.92 0 0 1 5.19602,-4.766 c 13.03282,-11.34219 25.39986,-17.32198 33.5742,-17.44173 z m -91.91324,0.21281 c 8.71682,-0.0903 22.18277,6.40428 36.22211,18.86979 1.12601,1 2.25695,2.04713 3.38995,3.13013 -6.564,7.049 -13.051,15.07399 -19.24801,23.81999 -10.62699,0.985 -20.79985,2.567 -30.15185,4.686 a 141.52499,141.52499 0 0 1 -1.55307,-6.96209 v 0.001 c -4.247,-21.703 -1.42696,-38.07396 5.67004,-42.18196 1.53563,-0.88888 3.4489,-1.33985 5.67083,-1.36286 z m 46.37914,28.89781 c 4.452,4.823 8.91095,10.20907 13.29695,16.05207 a 284.24499,284.24499 0 0 0 -26.70591,-0.006 c 4.39,-5.789 8.88696,-11.16707 13.40896,-16.04607 z m -0.107,25.38706 c 6.99599,0 13.89506,0.26803 20.61306,0.78003 a 290.70399,290.70399 0 0 1 10.88685,17.38292 316.41799,316.41799 0 0 1 9.741,18.12997 290.80599,290.80599 0 0 1 -9.709,18.28995 h -0.001 a 316.47799,316.47799 0 0 1 -10.83985,17.49014 c -6.704,0.47899 -13.63207,0.72602 -20.69206,0.72602 -7.031,0 -13.87106,-0.21903 -20.45805,-0.64602 a 273.79799,273.79799 0 0 1 -11.04306,-17.51713 271.33399,271.33399 0 0 1 -9.64001,-18.20597 273.86399,273.86399 0 0 1 9.61101,-18.21595 v 0.002 a 271.25198,271.25198 0 0 1 10.95604,-17.44193 c 6.72001,-0.508 13.61006,-0.77403 20.57507,-0.77403 z m -32.96798,2.00888 a 283.78998,283.78998 0 0 0 -6.92708,11.38408 285.23999,285.23999 0 0 0 -6.37788,11.68508 c -2.81099,-6.667 -5.21609,-13.22201 -7.18009,-19.55201 6.447,-1.443 13.32206,-2.62215 20.48505,-3.51715 z m 65.95095,0.018 c 7.21,0.91 14.11706,2.12015 20.60306,3.60115 -1.947,6.241 -4.3741,12.76701 -7.2321,19.45702 a 336.41998,336.41998 0 0 0 -6.49987,-11.7581 306.98199,306.98199 0 0 0 -6.87109,-11.30007 z m -95.80699,5.86904 c 2.828,9.19701 6.53706,18.813 11.01306,28.53699 -4.534,9.86901 -8.29607,19.63802 -11.15007,28.94301 a 118.908,118.908 0 0 1 -5.57803,-1.74587 c -11.018,-3.766 -20.1169,-8.66018 -26.3539,-14.00019 -5.604,-4.79999 -8.43415,-9.56495 -8.43415,-13.43195 0,-8.227 12.26716,-18.72188 32.72616,-25.85488 a 139.27599,139.27599 0 0 1 7.77693,-2.44711 z m 125.76804,0.14201 c 2.311,0.67 4.55488,1.37509 6.71688,2.12009 20.91,7.197 33.664,17.83988 33.664,26.03989 0,8.735 -13.77491,20.07514 -36.13991,27.48614 h -9.9e-4 c -1.23501,0.409 -2.50297,0.80385 -3.79496,1.18686 -2.86,-9.053 -6.72007,-18.68 -11.44208,-28.625 4.507,-9.71 8.21706,-19.21298 10.99706,-28.20798 z m -16.49808,39.39504 c 3.01999,6.88401 5.56611,13.54403 7.58811,19.87703 -6.552,1.495 -13.62508,2.69896 -21.07808,3.59296 a 337.53699,337.53699 0 0 0 6.93709,-11.49809 306.63198,306.63198 0 0 0 6.55288,-11.9719 z m -92.70787,0.34702 a 283.49398,283.49398 0 0 0 6.40586,11.69189 285.26999,285.26999 0 0 0 7.0941,11.60408 c -7.4,-0.82599 -14.37907,-1.94493 -20.82407,-3.34793 1.995,-6.44201 4.45311,-13.13804 7.32411,-19.94804 z m 102.94289,28.827 c 0.46,1.86 0.87005,3.68303 1.22305,5.46603 2.261,11.422 2.58404,21.74885 1.08604,29.82185 -1.34599,7.254 -4.05211,12.09018 -7.3981,14.02718 -7.121,4.122 -22.35002,-1.23604 -38.77202,-15.36805 -1.883,-1.61999 -3.78004,-3.35001 -5.68204,-5.18 6.367,-6.96401 12.72999,-15.06002 18.93999,-24.05001 10.92401,-0.969 21.24407,-2.554 30.60308,-4.717 z m -112.87291,0.43202 c 9.255,2.047 19.49988,3.51998 30.44987,4.40798 6.251,8.797 12.79802,16.88301 19.39601,23.96401 a 118.86299,118.86299 0 0 1 -4.30498,3.96396 c -8.767,7.664 -17.55205,13.10006 -25.29406,15.83506 h -9.9e-4 c -6.957,2.457 -12.49786,2.52702 -15.84686,0.59603 -7.128,-4.11 -10.09005,-19.98012 -6.04906,-41.26513 a 138.507,138.507 0 0 1 1.65007,-7.50191 z m 69.83092,5.10901 c -4.40001,5.98 -8.84296,11.44789 -13.26496,16.31688 -4.575,-4.937 -9.13796,-10.39688 -13.59497,-16.26987 4.326,0.17 8.73695,0.25601 13.21996,0.25601 4.606,0 9.15896,-0.10301 13.63997,-0.30302 z" />
  <path
     d="m 353.29474,178.55079 c 11.144,0 20.177,9.034 20.177,20.177 0,11.144 -9.033,20.178 -20.177,20.178 -11.143,0 -20.177,-9.034 -20.177,-20.178 0,-11.143 9.034,-20.177 20.177,-20.177"
     fill="#53c1de"
     id="path8" />
</svg>
