<svg xmlns="http://www.w3.org/2000/svg" preserveAspectRatio="xMinYMin meet" viewBox="0 0 706.56 397.45658">
  <defs/>
  <path fill="#fafafa" d="M-6.7200012-3.7717133h720v405h-720z"/>
  <path fill="#53c1de" d="M399.41522 98.210576c-11.30724-.0802-25.80159 7.083574-40.40409 19.790824a151.13599 151.13599 0 00-5.62603 5.16301 137.573 137.573 0 00-3.74396-3.45794c-20.40499-18.118-40.85801-25.751974-53.13901-18.64298-11.776 6.817-15.26403 27.05999-10.30703 52.38999a150.91 150.91 0 001.67007 7.48391c-2.894.822-5.68915 1.69811-8.36315 2.63011-23.922 8.34-39.20004 21.41186-39.20004 34.96986 0 14.00399 16.40013 28.05012 41.31813 36.56612a128.43999 128.43999 0 006.11005 1.90988 147.813 147.813 0 00-1.77507 8.06714c-4.726 24.89-1.03496 44.65295 10.71005 51.42794 12.13099 6.995 32.49098-.19513 52.31698-17.52513 1.567-1.37 3.13999-2.82298 4.715-4.34598a148.33999 148.33999 0 006.10785 5.57303c19.20399 16.525 38.17008 23.19809 49.90508 16.40508 12.12-7.01599 16.05805-28.24705 10.94406-54.07805-.39001-1.97299-.84506-3.98804-1.35506-6.04005 1.43-.422 2.83298-.85785 4.20198-1.31185 25.90399-8.582 42.75698-22.45714 42.75698-36.64813 0-13.607-15.76988-26.76687-40.17388-35.16787a151.364 151.364 0 00-7.2741-2.2921 137.5 137.5 0 001.12404-4.961c5.506-26.728 1.90597-48.25991-10.38803-55.34791-2.94674-1.699497-6.36174-2.531169-10.13082-2.557904zm-.49302 9.631194c2.28882-.0335 4.24884.39244 5.80284 1.28866 7.566 4.364 10.50904 21.96108 5.75504 45.03808a127.52499 127.52499 0 01-1.01605 4.49198c-9.37399-2.163-19.55405-3.773-30.21205-4.773-6.209-8.841-12.642-16.87999-19.1-23.83799a141.92 141.92 0 015.19602-4.766c13.03282-11.34219 25.39986-17.32198 33.5742-17.44173zm-91.91324.21281c8.71682-.0903 22.18277 6.40428 36.22211 18.86979 1.12601 1 2.25695 2.04713 3.38995 3.13013-6.564 7.049-13.051 15.07399-19.24801 23.81999-10.62699.985-20.79985 2.567-30.15185 4.686a141.52499 141.52499 0 01-1.55307-6.96209v.001c-4.247-21.703-1.42696-38.07396 5.67004-42.18196 1.53563-.88888 3.4489-1.33985 5.67083-1.36286zm46.37914 28.89781c4.452 4.823 8.91095 10.20907 13.29695 16.05207a284.24499 284.24499 0 00-26.70591-.006c4.39-5.789 8.88696-11.16707 13.40896-16.04607zm-.107 25.38706c6.99599 0 13.89506.26803 20.61306.78003a290.70399 290.70399 0 0110.88685 17.38292 316.41799 316.41799 0 019.741 18.12997 290.80599 290.80599 0 01-9.709 18.28995h-.001a316.47799 316.47799 0 01-10.83985 17.49014c-6.704.47899-13.63207.72602-20.69206.72602-7.031 0-13.87106-.21903-20.45805-.64602a273.79799 273.79799 0 01-11.04306-17.51713 271.33399 271.33399 0 01-9.64001-18.20597 273.86399 273.86399 0 019.61101-18.21595v.002a271.25198 271.25198 0 0110.95604-17.44193c6.72001-.508 13.61006-.77403 20.57507-.77403zm-32.96798 2.00888a283.78998 283.78998 0 00-6.92708 11.38408 285.23999 285.23999 0 00-6.37788 11.68508c-2.81099-6.667-5.21609-13.22201-7.18009-19.55201 6.447-1.443 13.32206-2.62215 20.48505-3.51715zm65.95095.018c7.21.91 14.11706 2.12015 20.60306 3.60115-1.947 6.241-4.3741 12.76701-7.2321 19.45702a336.41998 336.41998 0 00-6.49987-11.7581 306.98199 306.98199 0 00-6.87109-11.30007zm-95.80699 5.86904c2.828 9.19701 6.53706 18.813 11.01306 28.53699-4.534 9.86901-8.29607 19.63802-11.15007 28.94301a118.908 118.908 0 01-5.57803-1.74587c-11.018-3.766-20.1169-8.66018-26.3539-14.00019-5.604-4.79999-8.43415-9.56495-8.43415-13.43195 0-8.227 12.26716-18.72188 32.72616-25.85488a139.27599 139.27599 0 017.77693-2.44711zm125.76804.14201c2.311.67 4.55488 1.37509 6.71688 2.12009 20.91 7.197 33.664 17.83988 33.664 26.03989 0 8.735-13.77491 20.07514-36.13991 27.48614h-.00099c-1.23501.409-2.50297.80385-3.79496 1.18686-2.86-9.053-6.72007-18.68-11.44208-28.625 4.507-9.71 8.21706-19.21298 10.99706-28.20798zm-16.49808 39.39504c3.01999 6.88401 5.56611 13.54403 7.58811 19.87703-6.552 1.495-13.62508 2.69896-21.07808 3.59296a337.53699 337.53699 0 006.93709-11.49809 306.63198 306.63198 0 006.55288-11.9719zm-92.70787.34702a283.49398 283.49398 0 006.40586 11.69189 285.26999 285.26999 0 007.0941 11.60408c-7.4-.82599-14.37907-1.94493-20.82407-3.34793 1.995-6.44201 4.45311-13.13804 7.32411-19.94804zm102.94289 28.827c.46 1.86.87005 3.68303 1.22305 5.46603 2.261 11.422 2.58404 21.74885 1.08604 29.82185-1.34599 7.254-4.05211 12.09018-7.3981 14.02718-7.121 4.122-22.35002-1.23604-38.77202-15.36805-1.883-1.61999-3.78004-3.35001-5.68204-5.18 6.367-6.96401 12.72999-15.06002 18.93999-24.05001 10.92401-.969 21.24407-2.554 30.60308-4.717zm-112.87291.43202c9.255 2.047 19.49988 3.51998 30.44987 4.40798 6.251 8.797 12.79802 16.88301 19.39601 23.96401a118.86299 118.86299 0 01-4.30498 3.96396c-8.767 7.664-17.55205 13.10006-25.29406 15.83506h-.00099c-6.957 2.457-12.49786 2.52702-15.84686.59603-7.128-4.11-10.09005-19.98012-6.04906-41.26513a138.507 138.507 0 011.65007-7.50191zm69.83092 5.10901c-4.40001 5.98-8.84296 11.44789-13.26496 16.31688-4.575-4.937-9.13796-10.39688-13.59497-16.26987 4.326.17 8.73695.25601 13.21996.25601 4.606 0 9.15896-.10301 13.63997-.30302z"/>
  <path fill="#53c1de" d="M353.28 178.55079c11.144 0 20.177 9.034 20.177 20.177 0 11.144-9.033 20.178-20.177 20.178-11.143 0-20.177-9.034-20.177-20.178 0-11.143 9.034-20.177 20.177-20.177"/>
</svg>
